<svg id="logo_w.svg" xmlns="http://www.w3.org/2000/svg" width="358.752" height="47.84" viewBox="0 0 358.752 47.84">
  <defs>
    <style>
      .cls-1 {
        fill: #fff;
        fill-rule: evenodd;
      }
    </style>
  </defs>
  <path id="Nakano_office_special_site_のコピー_2" data-name="Nakano office special site のコピー 2" class="cls-1" d="M879.058,4108.92h3.92v-8.31c0-2.39-.308-4.99-0.5-7.23h0.139l2.1,4.45,5.994,11.09h4.2v-20.75h-3.921v8.29c0,2.35.337,5.1,0.533,7.25h-0.14l-2.073-4.48-6.02-11.06h-4.229v20.75Zm24.794,0.39a7.351,7.351,0,0,0,4.733-2.07H908.7l0.28,1.68h3.36v-9.16c0-4.53-2.044-6.91-6.02-6.91a12.511,12.511,0,0,0-6.554,2.07l1.485,2.72a8.87,8.87,0,0,1,4.312-1.49c1.933,0,2.605,1.18,2.689,2.72-6.329.67-9.046,2.44-9.046,5.8A4.448,4.448,0,0,0,903.852,4109.31Zm1.344-3.22c-1.2,0-2.072-.53-2.072-1.76,0-1.4,1.288-2.46,5.125-2.94v3.16A4.261,4.261,0,0,1,905.2,4106.09Zm11.81,2.83h4.061v-3.97l2.212-2.52,3.809,6.49h4.452l-5.881-9.21,5.377-6.47h-4.508l-5.349,6.75h-0.112v-13.42h-4.061v22.35Zm21.021,0.39a7.35,7.35,0,0,0,4.732-2.07h0.112l0.28,1.68h3.361v-9.16c0-4.53-2.045-6.91-6.021-6.91a12.517,12.517,0,0,0-6.554,2.07l1.485,2.72a8.867,8.867,0,0,1,4.312-1.49c1.933,0,2.6,1.18,2.689,2.72-6.329.67-9.046,2.44-9.046,5.8A4.448,4.448,0,0,0,938.027,4109.31Zm1.344-3.22c-1.2,0-2.073-.53-2.073-1.76,0-1.4,1.288-2.46,5.125-2.94v3.16A4.262,4.262,0,0,1,939.371,4106.09Zm11.809,2.83H955.3v-10.78c1.148-1.15,1.96-1.76,3.248-1.76,1.541,0,2.212.84,2.212,3.27v9.27h4.117v-9.77c0-3.95-1.456-6.3-4.844-6.3a7.243,7.243,0,0,0-5.1,2.46h-0.083l-0.308-2.07H951.18v15.68Zm25.03,0.39c3.92,0,7.533-3.02,7.533-8.23s-3.613-8.23-7.533-8.23-7.533,3.02-7.533,8.23S972.289,4109.31,976.21,4109.31Zm0-3.36c-2.129,0-3.332-1.9-3.332-4.87,0-2.94,1.2-4.87,3.332-4.87s3.333,1.93,3.333,4.87C979.543,4104.05,978.339,4105.95,976.21,4105.95Zm25,3.36c3.92,0,7.54-3.02,7.54-8.23s-3.62-8.23-7.54-8.23-7.529,3.02-7.529,8.23S997.294,4109.31,1001.21,4109.31Zm0-3.36c-2.124,0-3.328-1.9-3.328-4.87,0-2.94,1.2-4.87,3.328-4.87s3.34,1.93,3.34,4.87C1004.55,4104.05,1003.34,4105.95,1001.21,4105.95Zm21.92,2.97h4.09v-12.43h2.97v-3.25h-2.97v-1.34c0-1.74.67-2.47,1.9-2.47a4.5,4.5,0,0,1,1.68.34l0.76-3.06a9.03,9.03,0,0,0-3-.53c-3.92,0-5.43,2.52-5.43,5.8v1.26h-5.66v-1.06c0-1.63.82-2.44,2.02-2.44a4.281,4.281,0,0,1,1.9.39l0.76-3.05a8.644,8.644,0,0,0-3.14-.59c-4,0-5.65,2.47-5.65,5.69v1.09l-2.1.17v3.05h2.1v12.43h4.11v-12.43h5.66v12.43Zm9.69,0h4.12v-15.68h-4.12v15.68Zm2.07-18.2a2.26,2.26,0,1,0,0-4.51A2.258,2.258,0,1,0,1034.89,4090.72Zm13.68,18.59a7.879,7.879,0,0,0,5.15-1.9l-1.65-2.72a4.857,4.857,0,0,1-3.05,1.26c-2.24,0-3.9-1.9-3.9-4.87,0-2.94,1.63-4.87,4.04-4.87a3.6,3.6,0,0,1,2.38,1.03l1.96-2.66a6.876,6.876,0,0,0-4.57-1.73,7.823,7.823,0,0,0-8.01,8.23C1040.92,4106.29,1044.23,4109.31,1048.57,4109.31Zm15.02,0a9.9,9.9,0,0,0,5.46-1.73l-1.4-2.52a6.462,6.462,0,0,1-3.53,1.09,4.122,4.122,0,0,1-4.34-3.92h9.66a7.762,7.762,0,0,0,.2-1.9c0-4.32-2.24-7.48-6.55-7.48-3.73,0-7.31,3.16-7.31,8.23C1055.78,4106.26,1059.19,4109.31,1063.59,4109.31Zm-3.87-9.83c0.31-2.26,1.77-3.44,3.42-3.44,2.02,0,2.97,1.34,2.97,3.44h-6.39Zm25.26,9.83c4.09,0,6.25-2.21,6.25-4.95,0-2.91-2.3-3.95-4.37-4.74-1.65-.61-3.11-1.03-3.11-2.18,0-.9.67-1.51,2.1-1.51a5.839,5.839,0,0,1,3.36,1.34l1.85-2.49a8.69,8.69,0,0,0-5.32-1.93c-3.59,0-5.86,1.99-5.86,4.79,0,2.63,2.22,3.83,4.21,4.59,1.65,0.64,3.27,1.18,3.27,2.35,0,0.98-.7,1.65-2.27,1.65a6.82,6.82,0,0,1-4.2-1.7l-1.87,2.57A9.9,9.9,0,0,0,1084.98,4109.31Zm9.97,5.63h4.11v-4.76l-0.14-2.57a5.838,5.838,0,0,0,3.89,1.7c3.45,0,6.67-3.1,6.67-8.48,0-4.82-2.3-7.98-6.16-7.98a7.422,7.422,0,0,0-4.62,2.01h-0.09l-0.3-1.62h-3.36v21.7Zm6.94-9.01a4.273,4.273,0,0,1-2.83-1.18v-6.89a4.337,4.337,0,0,1,3.08-1.62c2.16,0,3.11,1.65,3.11,4.65C1105.25,4104.3,1103.8,4105.93,1101.89,4105.93Zm18.54,3.38a9.9,9.9,0,0,0,5.46-1.73l-1.4-2.52a6.462,6.462,0,0,1-3.53,1.09,4.122,4.122,0,0,1-4.34-3.92h9.66a7.762,7.762,0,0,0,.2-1.9c0-4.32-2.24-7.48-6.55-7.48-3.73,0-7.31,3.16-7.31,8.23C1112.62,4106.26,1116.03,4109.31,1120.43,4109.31Zm-3.86-9.83c0.3-2.26,1.76-3.44,3.41-3.44,2.02,0,2.97,1.34,2.97,3.44h-6.38Zm20.56,9.83a7.879,7.879,0,0,0,5.15-1.9l-1.65-2.72a4.883,4.883,0,0,1-3.06,1.26c-2.24,0-3.89-1.9-3.89-4.87,0-2.94,1.63-4.87,4.03-4.87a3.558,3.558,0,0,1,2.38,1.03l1.97-2.66a6.876,6.876,0,0,0-4.57-1.73,7.818,7.818,0,0,0-8.01,8.23C1129.48,4106.29,1132.79,4109.31,1137.13,4109.31Zm8.37-.39h4.11v-15.68h-4.11v15.68Zm2.07-18.2a2.26,2.26,0,1,0-2.41-2.27A2.209,2.209,0,0,0,1147.57,4090.72Zm10.56,18.59a7.37,7.37,0,0,0,4.74-2.07h0.11l0.28,1.68h3.36v-9.16c0-4.53-2.04-6.91-6.02-6.91a12.46,12.46,0,0,0-6.55,2.07l1.48,2.72a8.9,8.9,0,0,1,4.31-1.49c1.93,0,2.61,1.18,2.69,2.72-6.33.67-9.04,2.44-9.04,5.8A4.441,4.441,0,0,0,1158.13,4109.31Zm1.35-3.22c-1.21,0-2.07-.53-2.07-1.76,0-1.4,1.28-2.46,5.12-2.94v3.16A4.271,4.271,0,0,1,1159.48,4106.09Zm15.62,3.22a5.459,5.459,0,0,0,2.13-.36l-0.51-3.05a2.58,2.58,0,0,1-.56.05c-0.39,0-.81-0.3-0.81-1.26v-18.12h-4.12v17.96C1171.23,4107.44,1172.24,4109.31,1175.1,4109.31Zm16.91,0c4.09,0,6.25-2.21,6.25-4.95,0-2.91-2.3-3.95-4.37-4.74-1.65-.61-3.11-1.03-3.11-2.18,0-.9.67-1.51,2.1-1.51a5.839,5.839,0,0,1,3.36,1.34l1.85-2.49a8.69,8.69,0,0,0-5.32-1.93c-3.59,0-5.86,1.99-5.86,4.79,0,2.63,2.22,3.83,4.21,4.59,1.65,0.64,3.27,1.18,3.27,2.35,0,0.98-.7,1.65-2.27,1.65a6.82,6.82,0,0,1-4.2-1.7l-1.87,2.57A9.9,9.9,0,0,0,1192.01,4109.31Zm9.97-.39h4.12v-15.68h-4.12v15.68Zm2.07-18.2a2.259,2.259,0,1,0-2.4-2.27A2.209,2.209,0,0,0,1204.05,4090.72Zm12.6,18.59a10.138,10.138,0,0,0,3.3-.58l-0.67-3a4.557,4.557,0,0,1-1.54.34c-1.4,0-2.13-.84-2.13-2.64v-6.94h3.86v-3.25h-3.86v-4.23h-3.42l-0.47,4.23-2.44.2v3.05h2.21v6.94C1211.49,4106.93,1212.92,4109.31,1216.65,4109.31Zm13.22,0a9.877,9.877,0,0,0,5.46-1.73l-1.4-2.52a6.455,6.455,0,0,1-3.52,1.09,4.11,4.11,0,0,1-4.34-3.92h9.66a7.86,7.86,0,0,0,.19-1.9c0-4.32-2.24-7.48-6.55-7.48-3.72,0-7.31,3.16-7.31,8.23C1222.06,4106.26,1225.48,4109.31,1229.87,4109.31Zm-3.86-9.83c0.31-2.26,1.76-3.44,3.42-3.44,2.01,0,2.96,1.34,2.96,3.44h-6.38Z" transform="translate(-877.188 -4086.19)"/>
  <path id="ディーキャリアITエキスパート中野オフィス特設サイト_のコピー" data-name="ディーキャリアITエキスパート中野オフィス特設サイト のコピー" class="cls-1" d="M878.87,4121.54v1.87c0.436-.03,1.06-0.04,1.554-0.04h4.751c0.507,0,1.075.01,1.568,0.04v-1.87a11.811,11.811,0,0,1-1.568.12h-4.751A11.255,11.255,0,0,1,878.87,4121.54Zm-1.685,3.72v1.9c0.407-.03.973-0.06,1.394-0.06h4a6.244,6.244,0,0,1-.9,3.21,5.906,5.906,0,0,1-2.63,2.08l1.7,1.23a6.889,6.889,0,0,0,2.92-2.78,9.259,9.259,0,0,0,.93-3.74h3.5c0.406,0,.958.02,1.321,0.05v-1.89a10.635,10.635,0,0,1-1.321.09h-9.516A10.713,10.713,0,0,1,877.185,4125.26Zm10.43-4.72-1.162.48a17.944,17.944,0,0,1,1.147,2.02l1.163-.51A21.906,21.906,0,0,0,887.615,4120.54Zm1.714-.66-1.147.48a17.075,17.075,0,0,1,1.162,2.01l1.162-.51C890.244,4121.35,889.706,4120.44,889.329,4119.88Zm2.611,8.49,0.857,1.71a29.9,29.9,0,0,0,4.169-1.7v3.84c0,0.5-.043,1.27-0.072,1.56h2.149a8.056,8.056,0,0,1-.1-1.56v-4.99a18.506,18.506,0,0,0,3.254-2.64l-1.439-1.41a15.283,15.283,0,0,1-3.617,3.11A19.177,19.177,0,0,1,891.94,4128.37Zm13.393-2.59v2.28c0.537-.04,1.51-0.07,2.338-0.07h7.8c0.611,0,1.352.06,1.7,0.07v-2.28c-0.378.03-1.017,0.09-1.7,0.09h-7.8C906.916,4125.87,905.855,4125.82,905.333,4125.78Zm18.952-3.65c0.043,0.24.145,0.72,0.26,1.33-1.248.2-2.367,0.36-2.875,0.42-0.451.06-.886,0.08-1.352,0.1l0.393,2c0.493-.13.871-0.2,1.337-0.3,0.45-.07,1.568-0.26,2.846-0.47,0.131,0.75.291,1.56,0.436,2.34-1.467.24-2.818,0.45-3.485,0.54-0.466.06-1.12,0.15-1.512,0.16l0.407,1.95c0.334-.09.829-0.19,1.453-0.31s1.99-.35,3.472-0.59c0.232,1.22.421,2.22,0.493,2.64,0.088,0.42.131,0.93,0.2,1.47l2.092-.38c-0.131-.47-0.276-0.99-0.378-1.42-0.088-.45-0.291-1.43-0.523-2.62,1.278-.2,2.455-0.39,3.152-0.51,0.552-.08,1.148-0.19,1.54-0.22l-0.392-1.91c-0.378.11-.915,0.23-1.482,0.35-0.654.13-1.845,0.33-3.152,0.55-0.161-.8-0.305-1.6-0.45-2.33,1.205-.19,2.309-0.36,2.9-0.46,0.437-.06,1.018-0.15,1.337-0.18l-0.348-1.9c-0.349.1-.9,0.22-1.367,0.31-0.522.1-1.626,0.27-2.861,0.48-0.116-.66-0.2-1.14-0.233-1.34-0.072-.35-0.115-0.84-0.159-1.13l-2.049.33C924.1,4121.38,924.2,4121.71,924.285,4122.13Zm14.945,1.15-1.947.47a4.915,4.915,0,0,1,.407,1.03c0.1,0.32.232,0.78,0.377,1.35-0.667.13-1.19,0.22-1.393,0.25-0.48.08-.873,0.13-1.337,0.17l0.45,1.74c0.436-.1,1.5-0.32,2.717-0.58,0.522,1.98,1.117,4.24,1.336,5.03a8.309,8.309,0,0,1,.261,1.28l1.976-.5c-0.117-.29-0.3-0.94-0.393-1.19-0.217-.75-0.841-2.99-1.393-4.99,1.568-.32,3.021-0.63,3.37-0.69a13.012,13.012,0,0,1-2.151,2.62l1.6,0.8a22.969,22.969,0,0,0,3.094-4.55l-1.163-.83a2.693,2.693,0,0,1-.741.23c-0.566.13-2.6,0.53-4.445,0.88-0.159-.57-0.29-1.07-0.391-1.41C939.375,4124.01,939.288,4123.62,939.23,4123.28Zm19.7-2.05h-2.194a10.271,10.271,0,0,1,.087,1.46v2.76c0,2.26-.189,3.35-1.191,4.44a6.5,6.5,0,0,1-3.487,1.83l1.511,1.6a8.566,8.566,0,0,0,3.53-2.09c1.075-1.19,1.685-2.54,1.685-5.67v-2.87C958.871,4122.11,958.9,4121.64,958.93,4121.23Zm-6.741.12H950.1a10.146,10.146,0,0,1,.059,1.12v4.89c0,0.44-.059,1.01-0.073,1.28h2.106c-0.029-.33-0.044-0.9-0.044-1.26v-4.91C952.145,4122,952.16,4121.68,952.189,4121.35Zm22.838,1.32-1.148-1.07a8.08,8.08,0,0,1-1.482.13h-7.829a11.159,11.159,0,0,1-1.772-.15v2.02c0.682-.06,1.162-0.1,1.772-0.1h7.569a8.634,8.634,0,0,1-2.674,2.7l1.511,1.21a14.9,14.9,0,0,0,3.486-3.98A7.285,7.285,0,0,1,975.027,4122.67Zm-5.927,1.96h-2.106a8.2,8.2,0,0,1,.1,1.31c0,2.38-.348,3.92-2.193,5.2a5.823,5.823,0,0,1-1.525.8l1.7,1.38C969.027,4131.2,969.1,4128.24,969.1,4124.63Zm8.562,7.88h2.151v-10.77h-2.151v10.77Zm7.663,0h2.15v-8.97h3.05v-1.8H982.3v1.8h3.021v8.97Zm8.053-10.14v1.99c0.363-.03.988-0.06,1.38-0.06h2.8v5.93h-3.691a9.745,9.745,0,0,1-1.422-.12v2.11a11.788,11.788,0,0,1,1.422-.08h9.579a11.309,11.309,0,0,1,1.36.08v-2.11a8.588,8.588,0,0,1-1.36.12H999.6v-5.93h3.065c0.42,0,.93.03,1.37,0.06v-1.99c-0.43.04-.93,0.08-1.37,0.08h-7.9C994.351,4122.45,993.756,4122.41,993.378,4122.37Zm18.062-.24c0.04,0.24.15,0.72,0.26,1.33-1.25.2-2.37,0.36-2.88,0.42-0.45.06-.88,0.08-1.35,0.1l0.4,2c0.49-.13.87-0.2,1.33-0.3,0.45-.07,1.57-0.26,2.85-0.47,0.13,0.75.29,1.56,0.44,2.34-1.47.24-2.82,0.45-3.49,0.54-0.47.06-1.12,0.15-1.51,0.16l0.4,1.95c0.34-.09.83-0.19,1.46-0.31s1.99-.35,3.47-0.59c0.23,1.22.42,2.22,0.49,2.64,0.09,0.42.13,0.93,0.21,1.47l2.09-.38c-0.13-.47-0.28-0.99-0.38-1.42-0.09-.45-0.29-1.43-0.52-2.62,1.28-.2,2.45-0.39,3.15-0.51,0.55-.08,1.15-0.19,1.54-0.22l-0.39-1.91c-0.38.11-.92,0.23-1.48,0.35-0.66.13-1.85,0.33-3.16,0.55-0.16-.8-0.3-1.6-0.45-2.33,1.21-.19,2.31-0.36,2.91-0.46,0.43-.06,1.02-0.15,1.34-0.18l-0.35-1.9c-0.35.1-.9,0.22-1.37,0.31-0.52.1-1.63,0.27-2.86,0.48-0.12-.66-0.2-1.14-0.23-1.34-0.08-.35-0.12-0.84-0.16-1.13l-2.05.33C1011.25,4121.38,1011.35,4121.71,1011.44,4122.13Zm20.42,0.53-1.19-.89a5.232,5.232,0,0,1-1.49.19h-5.13a15.91,15.91,0,0,1-1.72-.1v2.06c0.31-.01,1.11-0.1,1.72-0.1h4.92a11.245,11.245,0,0,1-2.16,3.56,16.375,16.375,0,0,1-5.96,4.17l1.5,1.57a19.209,19.209,0,0,0,5.46-4.09,32.851,32.851,0,0,1,3.66,4.12l1.66-1.44a40.746,40.746,0,0,0-4.06-4.16,21.248,21.248,0,0,0,2.29-3.99A7.686,7.686,0,0,1,1031.86,4122.66Zm14.83-.6a0.84,0.84,0,1,1,1.68,0A0.84,0.84,0,0,1,1046.69,4122.06Zm-0.9,0a1.74,1.74,0,1,0,1.74-1.74A1.739,1.739,0,0,0,1045.79,4122.06Zm-7.95,5.93a17.471,17.471,0,0,1-2.26,4.04l2.03,0.85a19.779,19.779,0,0,0,2.15-4.15,33.188,33.188,0,0,0,1.23-4.37c0.06-.32.22-1.03,0.35-1.46l-2.12-.43A20.6,20.6,0,0,1,1037.84,4127.99Zm7.18-.31a45.8,45.8,0,0,1,1.51,5.13l2.15-.7c-0.41-1.43-1.18-3.76-1.69-5.07-0.55-1.4-1.55-3.64-2.15-4.76l-1.93.62A41.215,41.215,0,0,1,1045.02,4127.68Zm6.01-1.9v2.28c0.54-.04,1.51-0.07,2.34-0.07h7.8c0.61,0,1.35.06,1.7,0.07v-2.28c-0.38.03-1.01,0.09-1.7,0.09h-7.8C1052.62,4125.87,1051.56,4125.82,1051.03,4125.78Zm16.86,5.33a15.658,15.658,0,0,1-.14,2.04h2.27c-0.06-.6-0.14-1.62-0.14-2.04V4127a41.777,41.777,0,0,1,5.25,2.17l0.83-2.01a48.719,48.719,0,0,0-6.08-2.25v-2.15a14.963,14.963,0,0,1,.14-1.74h-2.27a10.128,10.128,0,0,1,.14,1.74v8.35Zm18.16-3.57v-3.12h3.28v3.12h-3.28Zm-5.1,0v-3.12h3.27v3.12h-3.27Zm5.1-4.82v-2.52h-1.83v2.52h-5.01v7.32h1.74v-0.8h3.27v4.53h1.83v-4.53h3.28v0.72h1.82v-7.24h-5.1Zm9.48,1.88h1.09v1.09h-1.09v-1.09Zm0-2.35h1.09v1.08h-1.09v-1.08Zm3.57,1.08h-1.04v-1.08h1.04v1.08Zm0,2.36h-1.04v-1.09h1.04v1.09Zm-0.93,4.1h2.41v-1.55h-2.41v-1.18h2.4v-6.19h-6.45v6.19h2.38v1.18h-2.35v1.55h2.35v1.6c-1.07.11-2.05,0.19-2.83,0.26l0.2,1.68c1.89-.23,4.52-0.55,6.99-0.9l-0.04-1.51c-0.89.1-1.78,0.21-2.65,0.29v-1.42Zm8.05-4.21-0.25.04h-0.33l0.38-.42c-0.32-.26-0.74-0.54-1.18-0.84a14.573,14.573,0,0,0,2.3-2.79l-1.09-.79-0.38.09h-4.64v1.56h3.49a13.752,13.752,0,0,1-.96,1.16,12.72,12.72,0,0,0-1.23-.61l-1.06,1.06a18.442,18.442,0,0,1,2.66,1.58h-3.06v1.64h1.92v4.59c0,0.19-.07.24-0.29,0.24-0.2.01-.94,0.01-1.6-0.03a6.633,6.633,0,0,1,.51,1.7,5.775,5.775,0,0,0,2.38-.29,1.461,1.461,0,0,0,.73-1.57v-4.64h0.95c-0.15.73-.31,1.44-0.45,1.95l1.39,0.29a29.7,29.7,0,0,0,.97-3.68Zm11.9-4.71h-2.06c0.06,0.38.1,0.84,0.15,1.47,0.01,0.32.02,0.67,0.04,1.04h-4.81a13.5,13.5,0,0,1-1.61-.1v1.93c0.51-.02,1.13-0.05,1.65-0.05h3.97a17.341,17.341,0,0,1-6.39,5.04l1.33,1.51a19.956,19.956,0,0,0,5.93-4.91c0.03,1.49.03,2.95,0.03,3.92,0,0.42-.14.61-0.51,0.61a13.059,13.059,0,0,1-1.93-.17l0.16,1.88c0.83,0.06,1.64.09,2.53,0.09a1.374,1.374,0,0,0,1.62-1.47c-0.02-1.96-.08-4.38-0.13-6.5h1.88c0.39,0,.94.03,1.41,0.04v-1.93a11,11,0,0,1-1.51.11h-1.82c0-.37-0.01-0.72-0.01-1.04A14.479,14.479,0,0,1,1118.12,4120.87Zm17.54,1.96-1.42-.91a4.982,4.982,0,0,1-1.15.11h-6.71c-0.48,0-1.31-.07-1.75-0.11v2.04c0.38-.02,1.08-0.05,1.73-0.05h6.77a9.168,9.168,0,0,1-1.7,4.09,9.675,9.675,0,0,1-5.69,3.42l1.58,1.73a11.628,11.628,0,0,0,5.84-4.01,14.869,14.869,0,0,0,2.18-5.29A6.036,6.036,0,0,1,1135.66,4122.83Zm2.27,5.54,0.86,1.71a30.215,30.215,0,0,0,4.17-1.7v3.84c0,0.5-.04,1.27-0.07,1.56h2.15a7.833,7.833,0,0,1-.1-1.56v-4.99a18.46,18.46,0,0,0,3.25-2.64l-1.44-1.41a15.283,15.283,0,0,1-3.62,3.11A19.072,19.072,0,0,1,1137.93,4128.37Zm23.86-5.71-1.19-.89a5.232,5.232,0,0,1-1.49.19h-5.13a15.91,15.91,0,0,1-1.72-.1v2.06c0.31-.01,1.11-0.1,1.72-0.1h4.92a11.245,11.245,0,0,1-2.16,3.56,16.375,16.375,0,0,1-5.96,4.17l1.5,1.57a19.209,19.209,0,0,0,5.46-4.09,32.851,32.851,0,0,1,3.66,4.12l1.66-1.44a40.746,40.746,0,0,0-4.06-4.16,20.618,20.618,0,0,0,2.28-3.99A7.588,7.588,0,0,1,1161.79,4122.66Zm13.11,4.54h-4.66l-0.12-.78-1.34.38v-2.22h0.96v1.32h5.16v1.3Zm3.29-1.3v-1.6h-3.29v-1.24h2.67v-1.56h-2.67v-1.3h-1.72v1.3h-2.57v1.56h2.57v1.24h-3.19v-1.37h-1.21v-2.71h-1.58v2.71h-0.68c0.08-.58.16-1.16,0.21-1.74l-1.43-.23a18.369,18.369,0,0,1-.83,4.68,8.768,8.768,0,0,1,1.22.78,12.763,12.763,0,0,0,.54-1.84h0.97v2.67c-0.97.26-1.88,0.49-2.59,0.65l0.41,1.66c0.65-.19,1.39-0.41,2.18-0.64v4.85h1.58v-5.33c0.42-.13.86-0.28,1.28-0.41v0.77h1.76l-1.25.77a11.963,11.963,0,0,1,1.65,2.28l1.39-.88a11.49,11.49,0,0,0-1.75-2.17h3.04v3.01c0,0.19-.06.23-0.31,0.25-0.23,0-1.01,0-1.74-.03a6.461,6.461,0,0,1,.52,1.71,6.645,6.645,0,0,0,2.5-.29,1.477,1.477,0,0,0,.73-1.61v-3.04h1.46v-1.6h-1.46v-1.3h1.59Zm7.15-5.25h-4.39v1.31h4.39v-1.31Zm0.55,1.95h-5.68v1.36h5.68v-1.36Zm-0.52,4.01h-4.48v1.29h4.48v-1.29Zm5.54,1.38a6.689,6.689,0,0,1-1.36,1.96,7.136,7.136,0,0,1-1.41-1.96h2.77Zm-7.05,3.66h-1.54v-1.67h1.54v1.67Zm8.14-5.29-0.29.07h-5.11a4.588,4.588,0,0,0,1.8-4.05v-0.25h1.63v1.76c0,1.44.33,1.89,1.5,1.89h0.84c0.97,0,1.35-.51,1.49-2.31a4.975,4.975,0,0,1-1.41-.61c-0.01,1.26-.07,1.45-0.26,1.45h-0.36c-0.16,0-.19-0.04-0.19-0.45v-3.25h-4.86v1.73a3.3,3.3,0,0,1-1.41,2.98v-0.7h-4.48v1.32h4.48v-0.55a7.6,7.6,0,0,1,1.2,1.04h-0.49v1.56h2.02l-1.49.48a10.2,10.2,0,0,0,1.68,2.51,9.6,9.6,0,0,1-2.94,1.25v-3.62h-4.5v4.96h1.47V4133h3.03v-0.74a6.862,6.862,0,0,1,.9,1.5,11.528,11.528,0,0,0,3.33-1.59,10.043,10.043,0,0,0,3.19,1.59,7.816,7.816,0,0,1,1.12-1.5,10.076,10.076,0,0,1-2.99-1.25,9.886,9.886,0,0,0,2.24-4.23Zm14.15-.27v-0.48h1.08c0.77,0,1.28.01,1.6,0.04v-1.93a8.967,8.967,0,0,1-1.6.1h-1.08v-1.53a8.14,8.14,0,0,1,.11-1.35h-2.08a10.058,10.058,0,0,1,.09,1.35v1.53h-3.45v-1.44a9.494,9.494,0,0,1,.09-1.31h-2.06c0.04,0.44.08,0.89,0.08,1.31v1.44h-1.23a9.893,9.893,0,0,1-1.57-.13v1.97c0.32-.02.84-0.05,1.57-0.05h1.23v1.97a12.787,12.787,0,0,1-.08,1.53h2.03c-0.01-.29-0.06-0.89-0.06-1.53v-1.97h3.45v0.55c0,3.57-1.24,4.82-4.04,5.79l1.55,1.47C1205.28,4131.88,1206.15,4129.69,1206.15,4126.09Zm4.81,0.77,0.92,1.83a29.167,29.167,0,0,0,5.12-2.1v4.65a16.05,16.05,0,0,1-.1,1.91h2.3a9.462,9.462,0,0,1-.13-1.91v-5.87a26.816,26.816,0,0,0,3.9-3.15l-1.57-1.49a18.84,18.84,0,0,1-4.09,3.53A23.652,23.652,0,0,1,1210.96,4126.86Zm16.74,4.25a15.683,15.683,0,0,1-.15,2.04h2.27c-0.06-.6-0.13-1.62-0.13-2.04V4127a41.038,41.038,0,0,1,5.24,2.17l0.83-2.01a47.943,47.943,0,0,0-6.07-2.25v-2.15a15.07,15.07,0,0,1,.13-1.74h-2.27a9.226,9.226,0,0,1,.15,1.74v8.35Z" transform="translate(-877.188 -4086.19)"/>
</svg>
