<svg id="logo.svg" xmlns="http://www.w3.org/2000/svg" width="358.75" height="47.843" viewBox="0 0 358.75 47.843">
  <defs>
    <style>
      .cls-1 {
        fill: #f66a77;
      }

      .cls-1, .cls-2 {
        fill-rule: evenodd;
      }

      .cls-2 {
        fill: #8c8c8c;
      }
    </style>
  </defs>
  <path id="Nakano_office_special_site_のコピー_2" data-name="Nakano office special site のコピー 2" class="cls-1" d="M402.058,227.922h3.92v-8.317c0-2.38-.308-4.985-0.5-7.225h0.14l2.1,4.453,5.992,11.089h4.2V207.171h-3.921v8.289c0,2.353.337,5.1,0.533,7.254h-0.14l-2.073-4.481-6.021-11.062h-4.228v20.751Zm24.794,0.392a7.375,7.375,0,0,0,4.733-2.072H431.7l0.28,1.68h3.36v-9.157c0-4.537-2.044-6.917-6.02-6.917a12.527,12.527,0,0,0-6.553,2.072l1.484,2.717a8.861,8.861,0,0,1,4.312-1.485c1.933,0,2.605,1.177,2.689,2.717-6.329.672-9.046,2.436-9.046,5.8A4.455,4.455,0,0,0,426.852,228.314Zm1.344-3.22c-1.2,0-2.072-.532-2.072-1.764,0-1.4,1.288-2.465,5.125-2.941v3.165A4.261,4.261,0,0,1,428.2,225.094Zm11.81,2.828h4.061v-3.976l2.212-2.521,3.809,6.5h4.452l-5.881-9.213,5.377-6.469h-4.509l-5.348,6.749h-0.112V205.575h-4.061v22.347Zm21.02,0.392a7.375,7.375,0,0,0,4.733-2.072h0.112l0.28,1.68h3.36v-9.157c0-4.537-2.044-6.917-6.02-6.917a12.527,12.527,0,0,0-6.553,2.072l1.484,2.717a8.861,8.861,0,0,1,4.312-1.485c1.933,0,2.605,1.177,2.689,2.717-6.329.672-9.046,2.436-9.046,5.8A4.455,4.455,0,0,0,461.026,228.314Zm1.344-3.22c-1.2,0-2.072-.532-2.072-1.764,0-1.4,1.288-2.465,5.125-2.941v3.165A4.261,4.261,0,0,1,462.37,225.094Zm11.81,2.828H478.3V217.141c1.148-1.148,1.96-1.765,3.248-1.765,1.54,0,2.212.841,2.212,3.277v9.269h4.117v-9.773c0-3.949-1.456-6.3-4.845-6.3a7.227,7.227,0,0,0-5.1,2.464h-0.084l-0.309-2.072h-3.36v15.682Zm25.03,0.392c3.921,0,7.533-3.024,7.533-8.233s-3.612-8.233-7.533-8.233-7.533,3.024-7.533,8.233S495.29,228.314,499.21,228.314Zm0-3.36c-2.128,0-3.332-1.9-3.332-4.873,0-2.94,1.2-4.873,3.332-4.873s3.333,1.933,3.333,4.873C502.543,223.05,501.339,224.954,499.21,224.954Zm25,3.36c3.921,0,7.533-3.024,7.533-8.233s-3.612-8.233-7.533-8.233-7.533,3.024-7.533,8.233S520.294,228.314,524.214,228.314Zm0-3.36c-2.128,0-3.332-1.9-3.332-4.873,0-2.94,1.2-4.873,3.332-4.873s3.333,1.933,3.333,4.873C527.547,223.05,526.342,224.954,524.214,224.954Zm21.916,2.968h4.089V215.488h2.968V212.24h-2.968V210.9c0-1.736.672-2.465,1.9-2.465a4.614,4.614,0,0,1,1.681.336l0.756-3.052a8.993,8.993,0,0,0-3-.532c-3.92,0-5.433,2.52-5.433,5.8v1.26h-5.656v-1.064c0-1.624.812-2.437,2.016-2.437a4.25,4.25,0,0,1,1.9.393l0.756-3.053a8.685,8.685,0,0,0-3.136-.588c-4,0-5.657,2.464-5.657,5.685v1.092l-2.1.168v3.052h2.1v12.434h4.117V215.488h5.656v12.434Zm9.69,0h4.116V212.24H555.82v15.682Zm2.072-18.2a2.259,2.259,0,1,0,0-4.509A2.258,2.258,0,1,0,557.892,209.72Zm13.676,18.594a7.907,7.907,0,0,0,5.153-1.9l-1.653-2.716a4.869,4.869,0,0,1-3.052,1.26c-2.24,0-3.893-1.9-3.893-4.873,0-2.94,1.625-4.873,4.033-4.873a3.566,3.566,0,0,1,2.38,1.037l1.961-2.661a6.86,6.86,0,0,0-4.565-1.736,7.822,7.822,0,0,0-8.009,8.233C563.923,225.29,567.227,228.314,571.568,228.314Zm15.022,0a9.877,9.877,0,0,0,5.461-1.736l-1.4-2.52a6.463,6.463,0,0,1-3.528,1.092,4.121,4.121,0,0,1-4.341-3.921h9.662a7.738,7.738,0,0,0,.2-1.9c0-4.313-2.241-7.477-6.553-7.477-3.725,0-7.309,3.164-7.309,8.233C578.777,225.262,582.193,228.314,586.59,228.314Zm-3.865-9.829c0.308-2.268,1.764-3.445,3.417-3.445,2.016,0,2.968,1.345,2.968,3.445h-6.385Zm25.256,9.829c4.089,0,6.245-2.212,6.245-4.956,0-2.913-2.3-3.949-4.368-4.733-1.653-.616-3.109-1.036-3.109-2.184,0-.9.672-1.513,2.1-1.513a5.832,5.832,0,0,1,3.36,1.345l1.848-2.493a8.691,8.691,0,0,0-5.32-1.932c-3.585,0-5.853,1.988-5.853,4.789,0,2.632,2.212,3.836,4.2,4.592,1.653,0.644,3.277,1.177,3.277,2.353,0,0.98-.7,1.652-2.269,1.652a6.807,6.807,0,0,1-4.2-1.708l-1.876,2.576A9.946,9.946,0,0,0,607.981,228.314Zm9.965,5.629h4.117v-4.76l-0.14-2.577a5.828,5.828,0,0,0,3.892,1.708c3.445,0,6.665-3.108,6.665-8.485,0-4.817-2.3-7.981-6.161-7.981a7.444,7.444,0,0,0-4.62,2.016h-0.084l-0.309-1.624h-3.36v21.7Zm6.945-9.017a4.272,4.272,0,0,1-2.828-1.176v-6.889a4.32,4.32,0,0,1,3.08-1.625c2.156,0,3.109,1.653,3.109,4.649C628.252,223.3,626.795,224.926,624.891,224.926Zm18.539,3.388a9.877,9.877,0,0,0,5.461-1.736l-1.4-2.52a6.463,6.463,0,0,1-3.528,1.092,4.121,4.121,0,0,1-4.341-3.921h9.662a7.738,7.738,0,0,0,.2-1.9c0-4.313-2.241-7.477-6.553-7.477-3.725,0-7.309,3.164-7.309,8.233C635.617,225.262,639.033,228.314,643.43,228.314Zm-3.865-9.829c0.308-2.268,1.764-3.445,3.417-3.445,2.016,0,2.968,1.345,2.968,3.445h-6.385Zm20.561,9.829a7.9,7.9,0,0,0,5.153-1.9l-1.652-2.716a4.872,4.872,0,0,1-3.053,1.26c-2.24,0-3.892-1.9-3.892-4.873,0-2.94,1.624-4.873,4.032-4.873a3.568,3.568,0,0,1,2.381,1.037l1.96-2.661a6.856,6.856,0,0,0-4.565-1.736,7.822,7.822,0,0,0-8.009,8.233C652.481,225.29,655.786,228.314,660.126,228.314Zm8.371-.392h4.117V212.24H668.5v15.682Zm2.072-18.2a2.259,2.259,0,1,0-2.408-2.269A2.207,2.207,0,0,0,670.569,209.72Zm10.565,18.594a7.375,7.375,0,0,0,4.733-2.072h0.112l0.28,1.68h3.36v-9.157c0-4.537-2.044-6.917-6.02-6.917a12.527,12.527,0,0,0-6.553,2.072l1.484,2.717a8.861,8.861,0,0,1,4.312-1.485c1.933,0,2.605,1.177,2.689,2.717-6.329.672-9.046,2.436-9.046,5.8A4.455,4.455,0,0,0,681.134,228.314Zm1.344-3.22c-1.2,0-2.072-.532-2.072-1.764,0-1.4,1.288-2.465,5.125-2.941v3.165A4.261,4.261,0,0,1,682.478,225.094Zm15.621,3.22a5.5,5.5,0,0,0,2.129-.364l-0.5-3.052a2.32,2.32,0,0,1-.56.056c-0.393,0-.813-0.308-0.813-1.26V205.575h-4.116v17.951C694.235,226.438,695.243,228.314,698.1,228.314Zm16.912,0c4.089,0,6.245-2.212,6.245-4.956,0-2.913-2.3-3.949-4.368-4.733-1.653-.616-3.109-1.036-3.109-2.184,0-.9.672-1.513,2.1-1.513a5.832,5.832,0,0,1,3.36,1.345l1.848-2.493a8.691,8.691,0,0,0-5.32-1.932c-3.585,0-5.853,1.988-5.853,4.789,0,2.632,2.212,3.836,4.2,4.592,1.653,0.644,3.277,1.177,3.277,2.353,0,0.98-.7,1.652-2.269,1.652a6.807,6.807,0,0,1-4.2-1.708l-1.876,2.576A9.946,9.946,0,0,0,715.011,228.314Zm9.971-.392H729.1V212.24h-4.116v15.682Zm2.072-18.2a2.259,2.259,0,1,0-2.408-2.269A2.207,2.207,0,0,0,727.054,209.72Zm12.592,18.594a10.145,10.145,0,0,0,3.305-.588l-0.673-3a4.581,4.581,0,0,1-1.54.336c-1.4,0-2.128-.84-2.128-2.632v-6.946h3.864V212.24H738.61v-4.229h-3.417l-0.476,4.229-2.436.2v3.052h2.212v6.946C734.493,225.934,735.921,228.314,739.646,228.314Zm13.227,0a9.872,9.872,0,0,0,5.461-1.736l-1.4-2.52a6.464,6.464,0,0,1-3.529,1.092,4.12,4.12,0,0,1-4.34-3.921h9.661a7.738,7.738,0,0,0,.2-1.9c0-4.313-2.24-7.477-6.553-7.477-3.724,0-7.309,3.164-7.309,8.233C745.06,225.262,748.477,228.314,752.873,228.314Zm-3.864-9.829c0.308-2.268,1.764-3.445,3.416-3.445,2.017,0,2.969,1.345,2.969,3.445h-6.385Z" transform="translate(-400.188 -205.188)"/>
  <path id="ディーキャリアITエキスパート中野オフィス特設サイト_のコピー" data-name="ディーキャリアITエキスパート中野オフィス特設サイト のコピー" class="cls-2" d="M401.87,240.539v1.874c0.436-.029,1.06-0.044,1.554-0.044h4.75c0.509,0,1.075.015,1.569,0.044v-1.874a11.347,11.347,0,0,1-1.569.116h-4.75A10.812,10.812,0,0,1,401.87,240.539Zm-1.685,3.719v1.9c0.407-.029.973-0.058,1.395-0.058h3.994a6.247,6.247,0,0,1-.9,3.21,5.929,5.929,0,0,1-2.63,2.077l1.7,1.235a6.888,6.888,0,0,0,2.92-2.789,9.213,9.213,0,0,0,.929-3.733h3.5c0.407,0,.959.014,1.322,0.043v-1.888a11.012,11.012,0,0,1-1.322.087H401.58A11.081,11.081,0,0,1,400.185,244.258Zm10.43-4.721-1.162.479a18.569,18.569,0,0,1,1.147,2.019l1.162-.508C411.486,240.989,410.978,240.074,410.615,239.537Zm1.714-.654-1.148.479a17.18,17.18,0,0,1,1.163,2l1.162-.508A22.7,22.7,0,0,0,412.329,238.883Zm2.611,8.483,0.857,1.714a30.266,30.266,0,0,0,4.169-1.7v3.835c0,0.508-.043,1.278-0.072,1.569h2.149a8.114,8.114,0,0,1-.1-1.569v-4.983a19.013,19.013,0,0,0,3.254-2.644l-1.438-1.409a15.107,15.107,0,0,1-3.618,3.109A19.161,19.161,0,0,1,414.94,247.366Zm13.392-2.585v2.28c0.538-.043,1.511-0.072,2.339-0.072h7.8c0.61,0,1.351.058,1.7,0.072v-2.28c-0.377.029-1.016,0.087-1.7,0.087h-7.8C429.916,244.868,428.855,244.824,428.332,244.781Zm18.952-3.646c0.044,0.232.146,0.711,0.262,1.321-1.249.2-2.368,0.364-2.876,0.422-0.451.058-.887,0.087-1.351,0.1l0.392,2c0.494-.131.871-0.2,1.336-0.305,0.451-.073,1.569-0.262,2.847-0.465,0.131,0.741.291,1.554,0.436,2.339-1.467.232-2.818,0.45-3.486,0.537-0.465.058-1.119,0.146-1.511,0.16l0.407,1.947c0.334-.087.828-0.189,1.453-0.305s1.99-.349,3.471-0.6c0.233,1.22.422,2.223,0.494,2.644s0.131,0.93.2,1.467l2.091-.378c-0.13-.465-0.276-0.987-0.377-1.423s-0.291-1.424-.523-2.615c1.278-.2,2.455-0.392,3.152-0.508,0.552-.088,1.148-0.189,1.54-0.218l-0.392-1.918c-0.378.116-.916,0.233-1.482,0.349-0.654.131-1.845,0.334-3.152,0.552-0.16-.8-0.305-1.6-0.451-2.324,1.206-.189,2.31-0.364,2.906-0.465,0.435-.058,1.016-0.146,1.336-0.175l-0.349-1.9c-0.348.1-.9,0.218-1.365,0.306-0.523.1-1.627,0.276-2.862,0.479-0.116-.654-0.2-1.133-0.232-1.337-0.073-.348-0.116-0.842-0.16-1.133l-2.048.335C447.1,240.379,447.2,240.713,447.284,241.135Zm14.946,1.147-1.947.465a5.1,5.1,0,0,1,.407,1.031c0.1,0.32.232,0.785,0.378,1.351-0.669.131-1.192,0.218-1.395,0.247-0.479.087-.872,0.131-1.336,0.175l0.45,1.743c0.436-.1,1.5-0.32,2.716-0.581,0.523,1.975,1.119,4.241,1.337,5.026a8.287,8.287,0,0,1,.261,1.278l1.976-.494c-0.116-.29-0.305-0.944-0.392-1.191-0.218-.755-0.843-2.992-1.395-5,1.569-.32,3.022-0.625,3.37-0.683a12.874,12.874,0,0,1-2.15,2.615l1.6,0.8a22.85,22.85,0,0,0,3.094-4.547l-1.162-.828a2.764,2.764,0,0,1-.741.233c-0.566.13-2.6,0.523-4.445,0.871-0.159-.566-0.29-1.06-0.392-1.409C462.375,243.008,462.288,242.616,462.23,242.282Zm19.7-2.048h-2.194a10.265,10.265,0,0,1,.087,1.453v2.76c0,2.266-.189,3.355-1.191,4.445a6.573,6.573,0,0,1-3.486,1.83l1.51,1.6a8.544,8.544,0,0,0,3.53-2.092c1.075-1.191,1.685-2.542,1.685-5.665v-2.876C481.871,241.105,481.9,240.641,481.93,240.234Zm-6.741.116H473.1a10.228,10.228,0,0,1,.059,1.119v4.9c0,0.436-.059,1-0.073,1.278h2.106c-0.029-.334-0.043-0.9-0.043-1.263v-4.91C475.146,241,475.16,240.684,475.189,240.35Zm22.838,1.322-1.148-1.075a7.5,7.5,0,0,1-1.481.131h-7.83a11.535,11.535,0,0,1-1.772-.145V242.6c0.682-.058,1.162-0.1,1.772-0.1h7.568a8.644,8.644,0,0,1-2.673,2.7l1.511,1.206a14.779,14.779,0,0,0,3.486-3.981A7.326,7.326,0,0,1,498.027,241.672Zm-5.927,1.961h-2.106a8.122,8.122,0,0,1,.1,1.307c0,2.383-.348,3.923-2.193,5.2a5.772,5.772,0,0,1-1.525.8l1.7,1.38C492.027,250.2,492.1,247.236,492.1,243.633Zm8.563,7.873h2.15V240.742h-2.15v10.764Zm7.662,0h2.15v-8.962h3.05v-1.8H505.3v1.8h3.022v8.962Zm8.053-10.139v1.99c0.363-.029.988-0.058,1.38-0.058h2.8v5.927h-3.69a9.506,9.506,0,0,1-1.424-.116v2.106a12.176,12.176,0,0,1,1.424-.073h9.573a11.674,11.674,0,0,1,1.365.073V249.11a8.877,8.877,0,0,1-1.365.116H522.6V243.3h3.065c0.422,0,.93.029,1.366,0.058v-1.99c-0.421.044-.93,0.087-1.366,0.087h-7.9C517.351,241.454,516.756,241.411,516.378,241.367Zm18.061-.232c0.044,0.232.146,0.711,0.262,1.321-1.249.2-2.368,0.364-2.876,0.422-0.451.058-.886,0.087-1.351,0.1l0.392,2c0.494-.131.871-0.2,1.336-0.305,0.451-.073,1.569-0.262,2.847-0.465,0.131,0.741.291,1.554,0.436,2.339-1.467.232-2.818,0.45-3.486,0.537-0.465.058-1.119,0.146-1.511,0.16L530.9,249.2c0.334-.087.828-0.189,1.453-0.305s1.99-.349,3.471-0.6c0.233,1.22.422,2.223,0.494,2.644s0.131,0.93.2,1.467l2.091-.378c-0.13-.465-0.276-0.987-0.377-1.423s-0.291-1.424-.523-2.615c1.278-.2,2.455-0.392,3.152-0.508,0.552-.088,1.148-0.189,1.54-0.218l-0.392-1.918c-0.378.116-.916,0.233-1.482,0.349-0.654.131-1.845,0.334-3.152,0.552-0.16-.8-0.305-1.6-0.451-2.324,1.206-.189,2.31-0.364,2.906-0.465,0.435-.058,1.017-0.146,1.336-0.175l-0.349-1.9c-0.348.1-.9,0.218-1.365,0.306-0.523.1-1.627,0.276-2.862,0.479-0.116-.654-0.2-1.133-0.232-1.337-0.073-.348-0.116-0.842-0.16-1.133l-2.048.335C534.251,240.379,534.352,240.713,534.439,241.135Zm20.425,0.522-1.191-.886a5.2,5.2,0,0,1-1.5.189h-5.128a16.252,16.252,0,0,1-1.714-.1v2.062c0.3-.014,1.1-0.1,1.714-0.1h4.924a11.248,11.248,0,0,1-2.164,3.559,16.3,16.3,0,0,1-5.956,4.169l1.5,1.568a19.131,19.131,0,0,0,5.462-4.081,32.962,32.962,0,0,1,3.661,4.111l1.656-1.439a40.911,40.911,0,0,0-4.053-4.154,21.4,21.4,0,0,0,2.281-4A6.862,6.862,0,0,1,554.864,241.657Zm14.825-.595a0.843,0.843,0,1,1,.842.828A0.844,0.844,0,0,1,569.689,241.062Zm-0.9,0a1.744,1.744,0,1,0,1.743-1.743A1.746,1.746,0,0,0,568.788,241.062Zm-7.946,5.927a17.475,17.475,0,0,1-2.266,4.038l2.034,0.857a19.955,19.955,0,0,0,2.15-4.154A34,34,0,0,0,564,243.357c0.058-.32.218-1.031,0.348-1.453l-2.121-.435A20.915,20.915,0,0,1,560.842,246.989Zm7.176-.305a44.922,44.922,0,0,1,1.511,5.127l2.15-.7c-0.407-1.438-1.177-3.762-1.685-5.07-0.552-1.409-1.554-3.646-2.15-4.764l-1.932.624A40.674,40.674,0,0,1,568.018,246.684Zm6.015-1.9v2.28c0.538-.043,1.511-0.072,2.339-0.072h7.8c0.611,0,1.351.058,1.7,0.072v-2.28c-0.378.029-1.017,0.087-1.7,0.087h-7.8C575.616,244.868,574.556,244.824,574.033,244.781Zm16.861,5.331a16,16,0,0,1-.145,2.034h2.266c-0.058-.6-0.131-1.613-0.131-2.034V246a41.924,41.924,0,0,1,5.244,2.164l0.828-2a47.414,47.414,0,0,0-6.072-2.252v-2.15a15.817,15.817,0,0,1,.131-1.743h-2.266a10.05,10.05,0,0,1,.145,1.743v8.353Zm18.156-3.574v-3.123h3.283v3.123H609.05Zm-5.1,0v-3.123h3.269v3.123h-3.269Zm5.1-4.822V239.2h-1.83v2.513h-5.012v7.321h1.743v-0.8h3.269v4.532h1.83v-4.532h3.283v0.726h1.816v-7.248h-5.1Zm9.479,1.888h1.09v1.089h-1.09V243.6Zm0-2.353h1.09v1.075h-1.09v-1.075Zm3.574,1.075h-1.046v-1.075H622.1v1.075Zm0,2.367h-1.046V243.6H622.1v1.089Zm-0.93,4.1h2.412v-1.554h-2.412v-1.177h2.4v-6.188h-6.45v6.188H619.5v1.177h-2.354v1.554H619.5v1.6c-1.075.116-2.049,0.189-2.833,0.261l0.2,1.685c1.889-.232,4.518-0.552,6.988-0.9l-0.044-1.511c-0.886.1-1.772,0.2-2.644,0.291V248.79Zm8.048-4.213-0.247.044H628.64l0.377-.421c-0.319-.262-0.74-0.538-1.176-0.843a14.21,14.21,0,0,0,2.295-2.789l-1.09-.784-0.377.087h-4.634v1.554h3.486a12.476,12.476,0,0,1-.959,1.162c-0.421-.232-0.842-0.436-1.234-0.61l-1.061,1.06a18.388,18.388,0,0,1,2.659,1.584h-3.051v1.641h1.918v4.591c0,0.189-.073.232-0.291,0.232-0.2.015-.944,0.015-1.6-0.029a6.73,6.73,0,0,1,.509,1.7,5.7,5.7,0,0,0,2.382-.291,1.451,1.451,0,0,0,.726-1.569v-4.634h0.944c-0.145.727-.305,1.438-0.45,1.947l1.395,0.29a29.5,29.5,0,0,0,.973-3.675Zm11.9-4.706H639.06c0.058,0.377.1,0.842,0.146,1.467,0.014,0.319.029,0.668,0.043,1.046h-4.808a13.945,13.945,0,0,1-1.613-.1v1.932c0.509-.029,1.133-0.058,1.656-0.058h3.966a17.256,17.256,0,0,1-6.391,5.041l1.336,1.51a19.99,19.99,0,0,0,5.927-4.909c0.029,1.5.029,2.948,0.029,3.922,0,0.421-.145.61-0.509,0.61a12.254,12.254,0,0,1-1.932-.175l0.16,1.889c0.828,0.058,1.642.087,2.528,0.087a1.378,1.378,0,0,0,1.627-1.467c-0.029-1.961-.087-4.387-0.131-6.508h1.874c0.392,0,.944.029,1.409,0.044v-1.932a11.25,11.25,0,0,1-1.511.116H641.05c0-.378-0.014-0.727-0.014-1.046A12.444,12.444,0,0,1,641.123,239.871Zm17.537,1.961-1.424-.915a4.9,4.9,0,0,1-1.147.116h-6.711c-0.48,0-1.308-.073-1.744-0.116v2.048c0.378-.029,1.075-0.058,1.729-0.058h6.769a9.2,9.2,0,0,1-1.7,4.1,9.666,9.666,0,0,1-5.695,3.414l1.584,1.729a11.625,11.625,0,0,0,5.839-4.01,14.92,14.92,0,0,0,2.179-5.287A6.344,6.344,0,0,1,658.66,241.832Zm2.274,5.534,0.857,1.714a30.266,30.266,0,0,0,4.169-1.7v3.835c0,0.508-.044,1.278-0.073,1.569h2.15a8.114,8.114,0,0,1-.1-1.569v-4.983a19,19,0,0,0,3.253-2.644l-1.438-1.409a15.12,15.12,0,0,1-3.617,3.109A19.161,19.161,0,0,1,660.934,247.366Zm23.858-5.709-1.191-.886a5.188,5.188,0,0,1-1.5.189h-5.128a16.252,16.252,0,0,1-1.714-.1v2.062c0.3-.014,1.1-0.1,1.714-0.1H681.9a11.271,11.271,0,0,1-2.165,3.559,16.287,16.287,0,0,1-5.956,4.169l1.5,1.568a19.131,19.131,0,0,0,5.462-4.081,33.03,33.03,0,0,1,3.66,4.111l1.656-1.439A40.911,40.911,0,0,0,682,246.553a21.348,21.348,0,0,0,2.281-4A6.979,6.979,0,0,1,684.792,241.657ZM697.9,246.2h-4.663l-0.116-.784-1.336.378v-2.223h0.959V244.9H697.9V246.2Zm3.3-1.307v-1.6h-3.3v-1.235h2.673V240.5H697.9V239.2h-1.714V240.5h-2.571v1.569h2.571V243.3h-3.2v-1.366h-1.2v-2.716H690.2v2.716h-0.682q0.13-.871.218-1.743l-1.439-.232a17.626,17.626,0,0,1-.828,4.677,9.3,9.3,0,0,1,1.221.785,11.778,11.778,0,0,0,.537-1.845H690.2v2.673c-0.973.261-1.873,0.494-2.585,0.654l0.406,1.656c0.654-.189,1.395-0.407,2.179-0.64v4.852h1.584v-5.331c0.421-.131.857-0.276,1.278-0.407v0.77h1.758l-1.249.77a11.648,11.648,0,0,1,1.656,2.281l1.38-.886a11.352,11.352,0,0,0-1.744-2.165H697.9v3.007c0,0.189-.058.233-0.305,0.247-0.232,0-1.017,0-1.743-.029a6.263,6.263,0,0,1,.523,1.714,6.608,6.608,0,0,0,2.5-.29,1.474,1.474,0,0,0,.726-1.613V247.8h1.467v-1.6H699.6V244.9h1.6Zm7.142-5.244H703.95v1.307h4.387v-1.307Zm0.552,1.946h-5.68v1.366h5.68V241.6Zm-0.523,4.01h-4.474V246.9h4.474v-1.293Zm5.549,1.38a6.892,6.892,0,0,1-1.366,1.961,7.17,7.17,0,0,1-1.409-1.961h2.775Zm-7.06,3.66h-1.54v-1.67h1.54v1.67ZM715,245.362l-0.29.072H709.6a4.6,4.6,0,0,0,1.8-4.053v-0.246h1.627v1.757c0,1.438.334,1.889,1.5,1.889h0.843c0.973,0,1.351-.509,1.5-2.31a4.917,4.917,0,0,1-1.409-.61c-0.015,1.264-.073,1.452-0.262,1.452H714.83c-0.16,0-.189-0.043-0.189-0.45v-3.254h-4.866v1.729a3.265,3.265,0,0,1-1.409,2.978v-0.7h-4.474v1.321h4.474v-0.552a7.748,7.748,0,0,1,1.206,1.046h-0.494v1.555H711.1l-1.482.479a10.071,10.071,0,0,0,1.671,2.513,9.509,9.509,0,0,1-2.935,1.249v-3.617h-4.5v4.954h1.467V252h3.036v-0.741a7.289,7.289,0,0,1,.9,1.5,11.745,11.745,0,0,0,3.327-1.584,10.134,10.134,0,0,0,3.2,1.584,7.445,7.445,0,0,1,1.119-1.5,9.916,9.916,0,0,1-2.993-1.249,9.78,9.78,0,0,0,2.237-4.227Zm14.15-.276v-0.48h1.075c0.77,0,1.278.015,1.6,0.044v-1.932a8.568,8.568,0,0,1-1.6.1h-1.075v-1.526a9.092,9.092,0,0,1,.1-1.351h-2.078a9.5,9.5,0,0,1,.088,1.351v1.526h-3.443v-1.439a8.824,8.824,0,0,1,.087-1.307h-2.063c0.044,0.436.087,0.886,0.087,1.307v1.439H720.7a9.488,9.488,0,0,1-1.569-.131v1.975c0.319-.029.842-0.058,1.569-0.058h1.234v1.976a11.663,11.663,0,0,1-.087,1.525h2.034c-0.015-.29-0.058-0.886-0.058-1.525v-1.976h3.443v0.552c0,3.574-1.235,4.823-4.039,5.8l1.555,1.468C728.282,250.882,729.154,248.688,729.154,245.086Zm4.806,0.77,0.915,1.83A29.055,29.055,0,0,0,740,245.594v4.649a16.289,16.289,0,0,1-.1,1.9h2.3a10.059,10.059,0,0,1-.13-1.9v-5.869a26.693,26.693,0,0,0,3.907-3.152l-1.569-1.5a18.592,18.592,0,0,1-4.1,3.53A23.373,23.373,0,0,1,733.96,245.856Zm16.739,4.256a16,16,0,0,1-.145,2.034h2.266c-0.058-.6-0.131-1.613-0.131-2.034V246a41.924,41.924,0,0,1,5.244,2.164l0.828-2a47.414,47.414,0,0,0-6.072-2.252v-2.15a15.817,15.817,0,0,1,.131-1.743h-2.266a10.05,10.05,0,0,1,.145,1.743v8.353Z" transform="translate(-400.188 -205.188)"/>
</svg>
